<?xml version="1.0" encoding="utf-8"?>
<!-- Generator: Adobe Illustrator 24.2.3, SVG Export Plug-In . SVG Version: 6.00 Build 0)  -->
<svg version="1.1" xmlns="http://www.w3.org/2000/svg" xmlns:xlink="http://www.w3.org/1999/xlink" x="0px" y="0px"
	 viewBox="0 0 341.64 110.34" style="enable-background:new 0 0 341.64 110.34;" xml:space="preserve">
<style type="text/css">
	.st0{fill:url(#SVGID_1_);stroke:url(#SVGID_2_);}
	.st1{fill:url(#SVGID_3_);}
</style>
<g id="レイヤー_1">
	<text transform="matrix(1 0 0 1 -44.7606 -146.7984)" style="font-family:'JosefinSans-Bold'; font-size:124.1848px;">SkillRePo</text>
	<path d="M14.99-409.46c-0.99,1.24-1.97,2.48-2.92,3.73c-0.95,1.24-1.92,2.48-2.92,3.73c-0.66-0.66-1.53-1.39-2.61-2.17
		c-1.08-0.79-2.3-1.51-3.66-2.17c-1.37-0.66-2.9-1.22-4.59-1.68c-1.7-0.45-3.5-0.68-5.4-0.68c-4.8,0-8.36,1.37-10.68,4.1
		c-2.32,2.73-3.48,5.96-3.48,9.69c0,2.07,0.39,3.81,1.18,5.22c0.79,1.41,1.82,2.59,3.1,3.54c1.28,0.95,2.73,1.76,4.35,2.42
		c1.61,0.66,3.29,1.28,5.03,1.86c2.73,0.99,5.67,2.17,8.82,3.54c3.15,1.37,6.06,3.1,8.75,5.22c2.69,2.11,4.92,4.7,6.71,7.76
		c1.78,3.06,2.67,6.75,2.67,11.05c0,3.73-0.68,7.08-2.05,10.06c-1.37,2.98-3.23,5.53-5.59,7.64c-2.36,2.11-5.11,3.73-8.26,4.84
		c-3.15,1.12-6.46,1.68-9.94,1.68c-3.15,0-6.21-0.43-9.19-1.3s-5.71-1.99-8.2-3.35c-2.48-1.37-4.7-2.88-6.64-4.53
		c-1.95-1.66-3.46-3.31-4.53-4.97l6.46-6.46c1.08,1.16,2.36,2.38,3.85,3.66c1.49,1.29,3.1,2.46,4.84,3.54
		c1.74,1.08,3.64,1.95,5.71,2.61c2.07,0.66,4.3,0.99,6.71,0.99c2.15,0,4.22-0.31,6.21-0.93c1.99-0.62,3.75-1.53,5.28-2.73
		c1.53-1.2,2.75-2.71,3.66-4.53c0.91-1.82,1.37-3.93,1.37-6.33c0-3.31-0.81-6-2.42-8.07c-1.61-2.07-3.6-3.79-5.96-5.15
		c-2.36-1.37-4.82-2.46-7.39-3.29c-2.57-0.83-4.8-1.61-6.71-2.36c-1.49-0.58-3.27-1.37-5.34-2.36c-2.07-0.99-4.04-2.34-5.9-4.04
		c-1.86-1.7-3.46-3.81-4.78-6.33c-1.33-2.52-2.03-5.61-2.11-9.25c-0.08-2.73,0.29-5.46,1.12-8.2c0.83-2.73,2.19-5.22,4.1-7.45
		c1.9-2.24,4.43-4.06,7.58-5.46c3.15-1.41,6.99-2.11,11.55-2.11c3.31,0,6.75,0.58,10.31,1.74C6.63-415.63,10.61-413.19,14.99-409.46
		z"/>
	<path d="M120.24-593.46c-0.99,1.24-1.97,2.48-2.92,3.73c-0.95,1.24-1.92,2.48-2.92,3.73c-0.66-0.66-1.53-1.39-2.61-2.17
		c-1.08-0.79-2.3-1.51-3.66-2.17c-1.37-0.66-2.9-1.22-4.59-1.68c-1.7-0.45-3.5-0.68-5.4-0.68c-4.8,0-8.36,1.37-10.68,4.1
		c-2.32,2.73-3.48,5.96-3.48,9.69c0,2.07,0.39,3.81,1.18,5.22c0.79,1.41,1.82,2.59,3.1,3.54c1.28,0.95,2.73,1.76,4.35,2.42
		c1.61,0.66,3.29,1.28,5.03,1.86c2.73,0.99,5.67,2.17,8.82,3.54c3.15,1.37,6.06,3.1,8.75,5.22c2.69,2.11,4.92,4.7,6.71,7.76
		c1.78,3.06,2.67,6.75,2.67,11.05c0,3.73-0.68,7.08-2.05,10.06c-1.37,2.98-3.23,5.53-5.59,7.64c-2.36,2.11-5.11,3.73-8.26,4.84
		c-3.15,1.12-6.46,1.68-9.94,1.68c-3.15,0-6.21-0.43-9.19-1.3s-5.71-1.99-8.2-3.35c-2.48-1.37-4.7-2.88-6.64-4.53
		c-1.95-1.66-3.46-3.31-4.53-4.97l6.46-6.46c1.08,1.16,2.36,2.38,3.85,3.66c1.49,1.29,3.1,2.46,4.84,3.54
		c1.74,1.08,3.64,1.95,5.71,2.61c2.07,0.66,4.3,0.99,6.71,0.99c2.15,0,4.22-0.31,6.21-0.93c1.99-0.62,3.75-1.53,5.28-2.73
		c1.53-1.2,2.75-2.71,3.66-4.53c0.91-1.82,1.37-3.93,1.37-6.33c0-3.31-0.81-6-2.42-8.07c-1.61-2.07-3.6-3.79-5.96-5.15
		c-2.36-1.37-4.82-2.46-7.39-3.29c-2.57-0.83-4.8-1.61-6.71-2.36c-1.49-0.58-3.27-1.37-5.34-2.36c-2.07-0.99-4.04-2.34-5.9-4.04
		c-1.86-1.7-3.46-3.81-4.78-6.33c-1.33-2.52-2.03-5.61-2.11-9.25c-0.08-2.73,0.29-5.46,1.12-8.2c0.83-2.73,2.19-5.22,4.1-7.45
		c1.9-2.24,4.43-4.06,7.58-5.46c3.15-1.41,6.99-2.11,11.55-2.11c3.31,0,6.75,0.58,10.31,1.74
		C111.88-599.63,115.85-597.18,120.24-593.46z"/>
	<path d="M69.76-378.79l6.08,6.08c-2.82,2.65-5.46,5.15-7.95,7.51c-2.48,2.36-5.13,4.86-7.95,7.51c3.23,4.47,6.46,8.9,9.69,13.29
		c3.23,4.39,6.46,8.82,9.69,13.29H67.4c-2.4-3.31-4.84-6.62-7.33-9.93c-2.48-3.31-4.93-6.62-7.33-9.93
		c-0.99,0.91-2.01,1.86-3.04,2.86c-1.04,0.99-2.05,1.95-3.04,2.86v14.16H36.35v-93.14h10.31v66.94c3.97-3.73,7.82-7.31,11.55-10.74
		C61.93-371.48,65.78-375.06,69.76-378.79z"/>
	<path d="M90.99-395.68c0-1.9,0.66-3.48,1.99-4.72c1.32-1.24,2.81-1.86,4.47-1.86c1.57,0,3.02,0.62,4.35,1.86
		c1.32,1.24,1.99,2.82,1.99,4.72c0,1.91-0.66,3.46-1.99,4.66c-1.33,1.2-2.77,1.8-4.35,1.8c-1.66,0-3.15-0.6-4.47-1.8
		C91.65-392.22,90.99-393.77,90.99-395.68z M102.42-331.1H92.11v-46.57h10.31V-331.1z"/>
	<path d="M127.25-300.92h-10.31v-123.32l10.31,30.18V-300.92z"/>
	<path d="M151.34-331.1h-10.31v-93.14h10.31V-331.1z"/>
	<path d="M165.13-331.1v-86.93h20.49c2.81,0,5.94,0.43,9.38,1.3c3.43,0.87,6.64,2.26,9.62,4.16c2.98,1.91,5.46,4.35,7.45,7.33
		s2.98,6.58,2.98,10.8c0,6.21-1.55,11.41-4.66,15.58c-3.1,4.18-7.64,6.93-13.6,8.26l18.63,39.49h-11.18l-18.26-38.75h-2.11h-8.45
		v38.75H165.13z M175.43-379.78h10.8c3.64,0,6.64-0.48,9-1.43c2.36-0.95,4.24-2.13,5.65-3.54c1.41-1.41,2.4-2.98,2.98-4.72
		c0.58-1.74,0.87-3.39,0.87-4.97c0-1.82-0.48-3.58-1.43-5.28c-0.95-1.7-2.24-3.19-3.85-4.47c-1.61-1.28-3.56-2.3-5.84-3.04
		c-2.28-0.75-4.7-1.12-7.26-1.12h-10.93V-379.78z"/>
	<path d="M139.98-514.11v-86.93h20.49c2.81,0,5.94,0.43,9.38,1.3c3.43,0.87,6.64,2.26,9.62,4.16c2.98,1.91,5.46,4.35,7.45,7.33
		s2.98,6.58,2.98,10.8c0,6.21-1.55,11.41-4.66,15.58c-3.1,4.18-7.64,6.93-13.6,8.26l18.63,39.49H179.1l-18.26-38.75h-2.11h-8.45
		v38.75H139.98z M150.29-562.79h10.8c3.64,0,6.64-0.48,9-1.43c2.36-0.95,4.24-2.13,5.65-3.54c1.41-1.41,2.4-2.98,2.98-4.72
		c0.58-1.74,0.87-3.39,0.87-4.97c0-1.82-0.48-3.58-1.43-5.28c-0.95-1.7-2.24-3.19-3.85-4.47c-1.61-1.28-3.56-2.3-5.84-3.04
		c-2.28-0.75-4.7-1.12-7.26-1.12h-10.93V-562.79z"/>
	<path d="M266.54-358.17c-5.63,2.07-11.24,4.14-16.83,6.21c-5.59,2.07-11.2,4.14-16.83,6.21c1.24,1.74,2.88,3.13,4.91,4.16
		c2.03,1.04,4.33,1.55,6.89,1.55c3.81,0,6.95-1.32,9.44-3.97l6.33,7.45c-2.07,2.07-4.43,3.68-7.08,4.84
		c-2.65,1.16-5.55,1.74-8.69,1.74c-3.48,0-6.73-0.64-9.75-1.92c-3.02-1.28-5.65-3.04-7.89-5.28s-4-4.82-5.28-7.76
		c-1.28-2.94-1.92-6.1-1.92-9.5c0-3.31,0.64-6.46,1.92-9.44c1.28-2.98,3.04-5.57,5.28-7.76c2.24-2.19,4.86-3.93,7.89-5.22
		c3.02-1.28,6.27-1.92,9.75-1.92c2.57,0,5.03,0.52,7.39,1.55c2.36,1.04,4.47,2.46,6.33,4.28c1.86,1.82,3.5,4,4.91,6.52
		C264.72-363.9,265.79-361.15,266.54-358.17z M244.68-368.73c-3.31,0-6.17,0.83-8.57,2.48c-2.4,1.66-4.1,3.81-5.09,6.46
		c-0.42,1.24-0.7,2.69-0.87,4.35c3.89-1.41,7.76-2.83,11.61-4.29c3.85-1.45,7.72-2.88,11.61-4.28c-1.16-1.41-2.46-2.55-3.91-3.42
		C248.01-368.29,246.42-368.73,244.68-368.73z"/>
	<path d="M277.58-331.1v-86.93h20.49c2.81,0,5.94,0.43,9.38,1.3c3.43,0.87,6.64,2.26,9.62,4.16c2.98,1.91,5.46,4.35,7.45,7.33
		s2.98,6.58,2.98,10.8c0,7.53-2.24,13.52-6.71,17.94c-4.47,4.43-10.93,6.64-19.37,6.64h-13.54v38.75H277.58z M287.89-379.78h10.8
		c3.64,0,6.64-0.48,9-1.43c2.36-0.95,4.24-2.13,5.65-3.54c1.41-1.41,2.4-2.98,2.98-4.72c0.58-1.74,0.87-3.39,0.87-4.97
		c0-1.82-0.48-3.58-1.43-5.28c-0.95-1.7-2.24-3.19-3.85-4.47c-1.61-1.28-3.56-2.3-5.84-3.04c-2.28-0.75-4.7-1.12-7.26-1.12h-10.93
		V-379.78z"/>
	<path d="M209.9-514.11v-86.93h20.49c2.81,0,5.94,0.43,9.38,1.3c3.43,0.87,6.64,2.26,9.62,4.16c2.98,1.91,5.46,4.35,7.45,7.33
		s2.98,6.58,2.98,10.8c0,7.53-2.24,13.52-6.71,17.94c-4.47,4.43-10.93,6.64-19.37,6.64h-13.54v38.75H209.9z M220.21-562.79h10.8
		c3.64,0,6.64-0.48,9-1.43c2.36-0.95,4.24-2.13,5.65-3.54c1.41-1.41,2.4-2.98,2.98-4.72c0.58-1.74,0.87-3.39,0.87-4.97
		c0-1.82-0.48-3.58-1.43-5.28c-0.95-1.7-2.24-3.19-3.85-4.47c-1.61-1.28-3.56-2.3-5.84-3.04c-2.28-0.75-4.7-1.12-7.26-1.12h-10.93
		V-562.79z"/>
	<path d="M322.58-354.45c0-3.31,0.64-6.46,1.92-9.44c1.28-2.98,3.04-5.57,5.28-7.76c2.24-2.19,4.86-3.93,7.89-5.22
		c3.02-1.28,6.27-1.92,9.75-1.92s6.75,0.64,9.81,1.92c3.06,1.28,5.71,3.02,7.95,5.22c2.24,2.19,3.99,4.78,5.28,7.76
		c1.28,2.98,1.92,6.13,1.92,9.44c0,3.4-0.64,6.56-1.92,9.5c-1.28,2.94-3.04,5.53-5.28,7.76s-4.89,4-7.95,5.28
		c-3.06,1.28-6.33,1.92-9.81,1.92s-6.73-0.64-9.75-1.92c-3.02-1.28-5.65-3.04-7.89-5.28s-4-4.82-5.28-7.76
		C323.22-347.88,322.58-351.05,322.58-354.45z M332.89-354.32c0,1.99,0.37,3.85,1.12,5.59c0.75,1.74,1.76,3.25,3.04,4.53
		c1.28,1.28,2.79,2.3,4.53,3.04c1.74,0.75,3.6,1.12,5.59,1.12c1.99,0,3.85-0.37,5.59-1.12s3.27-1.76,4.59-3.04
		c1.32-1.28,2.36-2.79,3.1-4.53c0.75-1.74,1.12-3.6,1.12-5.59s-0.37-3.85-1.12-5.59c-0.75-1.74-1.78-3.27-3.1-4.59
		c-1.33-1.32-2.86-2.36-4.59-3.11s-3.6-1.12-5.59-1.12c-1.99,0-3.85,0.37-5.59,1.12c-1.74,0.75-3.25,1.78-4.53,3.11
		c-1.29,1.33-2.3,2.86-3.04,4.59C333.26-358.17,332.89-356.31,332.89-354.32z"/>
	<rect x="-35.05" y="-325.35" width="407.43" height="3"/>
</g>
<g id="レイヤー_3">
	<linearGradient id="SVGID_1_" gradientUnits="userSpaceOnUse" x1="6.135" y1="53.7808" x2="331.1889" y2="53.7808">
		<stop  offset="0" style="stop-color:#9C29B0"/>
		<stop  offset="0.1438" style="stop-color:#9F28B0"/>
		<stop  offset="0.2491" style="stop-color:#A824B0"/>
		<stop  offset="0.3421" style="stop-color:#B81DAF"/>
		<stop  offset="0.428" style="stop-color:#CF13AF"/>
		<stop  offset="0.5082" style="stop-color:#EB06AE"/>
		<stop  offset="0.542" style="stop-color:#FA00AE"/>
		<stop  offset="0.5515" style="stop-color:#FA04AB"/>
		<stop  offset="0.7708" style="stop-color:#FC5F73"/>
		<stop  offset="0.9245" style="stop-color:#FD994F"/>
		<stop  offset="0.998" style="stop-color:#FEAF41"/>
	</linearGradient>
	<linearGradient id="SVGID_2_" gradientUnits="userSpaceOnUse" x1="5.635" y1="53.7808" x2="331.6889" y2="53.7808">
		<stop  offset="0" style="stop-color:#9C29B0"/>
		<stop  offset="0.1438" style="stop-color:#9F28B0"/>
		<stop  offset="0.2491" style="stop-color:#A824B0"/>
		<stop  offset="0.3421" style="stop-color:#B81DAF"/>
		<stop  offset="0.428" style="stop-color:#CF13AF"/>
		<stop  offset="0.5082" style="stop-color:#EB06AE"/>
		<stop  offset="0.542" style="stop-color:#FA00AE"/>
		<stop  offset="0.5515" style="stop-color:#FA04AB"/>
		<stop  offset="0.7708" style="stop-color:#FC5F73"/>
		<stop  offset="0.9245" style="stop-color:#FD994F"/>
		<stop  offset="0.998" style="stop-color:#FEAF41"/>
	</linearGradient>
	<path class="st0" d="M321.62,35.37c-5.28,0-9.57-4.29-9.57-9.57c0-5.2,4.37-9.48,9.57-9.48c5.28,0,9.57,4.29,9.57,9.48
		C331.19,31.08,326.9,35.37,321.62,35.37z M321.62,21.1c-2.64,0-4.78,2.14-4.78,4.7c0,2.72,2.14,4.87,4.78,4.87
		c2.64,0,4.78-2.14,4.78-4.87C326.41,23.24,324.26,21.1,321.62,21.1z M75.58,91.94c-0.74,0-1.48-0.41-2.14-1.24L54.63,69.1
		c-7.75,13.86-22.27,23.01-39.75,23.01H9.19c-2.06,0-3.05-0.82-3.05-3.55c0-2.64,0.99-3.55,3.05-3.55h5.69
		c21.03,0,38.52-16.41,38.52-39.59V32.89c0-1.32-0.99-2.31-2.31-2.31H18.67c-2.06,0-3.05-0.82-3.05-3.55s0.99-3.63,3.05-3.63h35.79
		c3.46,0,6.19,2.72,6.19,6.19v15.67c0,5.86,0.01,11.46-1.8,16.58l20.11,24.25c0.58,0.66,0.91,1.32,0.91,1.98
		C79.87,89.72,77.23,91.94,75.58,91.94z M158.7,76.85H129.1v12.21c0,2.06-1.11,9.81-3.84,9.81s-3.34-7.75-3.34-9.81V76.85H91.74
		c-1.98,0-2.97-0.82-2.97-3.46c0-2.64,0.99-3.55,2.97-3.55h30.19V40.97H93.8c-1.98,0-2.97-0.82-2.97-3.46
		c0-2.64,0.99-3.55,2.97-3.55h28.12V22.25c0-2.06,0.62-13.56,3.34-13.56s3.84,11.5,3.84,13.56v11.71h27.63
		c1.98,0,3.05,0.91,3.05,3.55c0,2.64-1.07,3.46-3.05,3.46H129.1v28.87h29.61c1.98,0,3.05,0.91,3.05,3.55
		C161.76,76.03,160.68,76.85,158.7,76.85z M222.45,92.35h-31.01c-9.81,0-16.91-7.75-16.91-16.74c0-8.99,7.09-16.74,16.99-16.74
		c9.32,0,16.58,7.75,16.58,16.74c0,3.71-1.24,7.18-3.38,10.06h17.57c9.24,0,16.74-7.34,16.74-16.5c0-9.32-7.5-16.58-16.66-16.58
		h-21.2V30.99c0-1.32-0.99-2.31-2.31-2.31h-20.37c-1.57,0-2.89-1.4-2.89-3.63c0-2.14,1.32-3.55,2.89-3.55h23.59
		c3.46,0,6.19,2.72,6.19,6.19v17.73h14.19c13.2,0,23.67,10.8,23.67,23.5S235.65,92.35,222.45,92.35z M191.27,65.3
		c-5.61,0-10.14,4.62-10.14,10.31c0,5.61,4.45,10.06,10.31,10.06c5.53,0,10.14-4.54,10.14-10.06
		C201.58,69.92,196.97,65.3,191.27,65.3z M259.47,92.35c-2.72,0-3.55-0.99-3.55-3.05V22.58c0-2.06,0.82-3.13,3.55-3.13
		c2.64,0,3.55,1.07,3.55,3.13V89.3C263.02,91.36,262.11,92.35,259.47,92.35z M303.93,29.18H279.1c-1.98,0-2.89-0.82-2.89-3.3
		c0-2.47,0.91-3.38,2.89-3.38h24.82c1.98,0,2.97,0.91,2.97,3.38C306.9,28.36,305.91,29.18,303.93,29.18z M324.46,72.48h-7.92
		c0.08,0.66,0.08,1.32,0.08,1.98c0,10.06-8.17,18.31-18.31,18.31h-2.23c-10.06,0-18.39-8.17-18.39-18.31s8.33-18.31,18.39-18.31
		h2.23c4.12,0,8,1.48,11.13,3.88V46.99H279.1c-1.98,0-2.89-0.82-2.89-3.3s0.91-3.38,2.89-3.38h45.53c1.98,0,2.97,0.91,2.97,3.38
		s-0.99,3.3-2.97,3.3h-8.08v18.39h7.92c2.06,0,3.13,0.91,3.13,3.55C327.6,71.65,326.52,72.48,324.46,72.48z M297.82,62.83h-1.73
		c-6.43,0-11.63,5.2-11.63,11.63s5.2,11.63,11.63,11.63h1.73c6.35,0,11.63-5.28,11.63-11.63S304.17,62.83,297.82,62.83z"/>
	<g>
		<g>
			<linearGradient id="SVGID_3_" gradientUnits="userSpaceOnUse" x1="322.5782" y1="-65.4278" x2="352.3071" y2="-65.4278">
				<stop  offset="0" style="stop-color:#9C29B0"/>
				<stop  offset="0.1438" style="stop-color:#9F28B0"/>
				<stop  offset="0.2491" style="stop-color:#A824B0"/>
				<stop  offset="0.3421" style="stop-color:#B81DAF"/>
				<stop  offset="0.428" style="stop-color:#CF13AF"/>
				<stop  offset="0.5082" style="stop-color:#EB06AE"/>
				<stop  offset="0.542" style="stop-color:#FA00AE"/>
				<stop  offset="0.5515" style="stop-color:#FA04AB"/>
				<stop  offset="0.7708" style="stop-color:#FC5F73"/>
				<stop  offset="0.9245" style="stop-color:#FD994F"/>
				<stop  offset="0.998" style="stop-color:#FEAF41"/>
			</linearGradient>
			<path class="st1" d="M341.94-69.64c3.44,1.53,6.89,3.06,10.33,4.59c0.03,0.02,0.04,0.05,0.03,0.07
				c-0.01,0.03-0.04,0.06-0.08,0.05c-3.5,1.24-7.01,2.49-10.51,3.73c-0.38,3.71-0.75,7.42-1.13,11.12c0,0.03-0.02,0.05-0.05,0.05
				c-0.03,0-0.06-0.02-0.05-0.06c-2.31-2.93-4.63-5.87-6.94-8.8c-3.62,0.71-7.24,1.43-10.87,2.14c-0.04,0.02-0.08,0.01-0.09-0.01
				c0,0-0.01-0.02,0.01-0.06c0.04-0.07,3.15-4.45,6.54-9.2c-1.86-3.21-3.72-6.43-5.58-9.64c-0.03-0.02-0.04-0.04-0.03-0.07
				c0.01-0.03,0.04-0.06,0.08-0.06c3.45,0.92,6.9,1.85,10.34,2.77c2.57-2.6,5.14-5.2,7.7-7.8c0.02-0.03,0.05-0.04,0.08-0.03
				c0.03,0.01,0.05,0.04,0.04,0.08C341.83-77.05,341.89-73.35,341.94-69.64z"/>
		</g>
	</g>
</g>
<g id="レイヤー_2">
</g>
</svg>
