<?xml version="1.0" encoding="utf-8"?>
<!-- Generator: Adobe Illustrator 24.2.3, SVG Export Plug-In . SVG Version: 6.00 Build 0)  -->
<svg version="1.1" id="レイヤー_1" xmlns="http://www.w3.org/2000/svg" xmlns:xlink="http://www.w3.org/1999/xlink" x="0px"
	 y="0px" viewBox="0 0 341.6 110.3" style="enable-background:new 0 0 341.6 110.3;" xml:space="preserve">
<style type="text/css">
	.st0{fill:url(#SVGID_1_);}
</style>
<g id="レイヤー_3">
	
		<linearGradient id="SVGID_1_" gradientUnits="userSpaceOnUse" x1="6.1" y1="785.7" x2="331.2" y2="785.7" gradientTransform="matrix(1 0 0 1 0 -732)">
		<stop  offset="0" style="stop-color:#6C63FE"/>
		<stop  offset="0.998" style="stop-color:#14E3FE"/>
	</linearGradient>
	<path class="st0" d="M321.6,35.4c-5.3,0-9.6-4.3-9.6-9.6c0-5.2,4.4-9.5,9.6-9.5c5.3,0,9.6,4.3,9.6,9.5
		C331.2,31.1,326.9,35.4,321.6,35.4z M321.6,21.1c-2.6,0-4.8,2.1-4.8,4.7c0,2.7,2.1,4.9,4.8,4.9c2.6,0,4.8-2.1,4.8-4.9
		C326.4,23.2,324.3,21.1,321.6,21.1z M75.6,91.9c-0.7,0-1.5-0.4-2.1-1.2L54.6,69.1c-7.8,13.9-22.3,23-39.8,23H9.2
		c-2.1,0-3.1-0.8-3.1-3.6c0-2.6,1-3.6,3.1-3.6h5.7c21,0,38.5-16.4,38.5-39.6V32.9c0-1.3-1-2.3-2.3-2.3H18.7c-2.1,0-3.1-0.8-3.1-3.5
		s1-3.6,3.1-3.6h35.8c3.5,0,6.2,2.7,6.2,6.2v15.7c0,5.9,0,11.5-1.8,16.6L79,86.1c0.6,0.7,0.9,1.3,0.9,2
		C79.9,89.7,77.2,91.9,75.6,91.9z M158.7,76.8h-29.6V89c0,2.1-1.1,9.8-3.8,9.8S122,91,122,89V76.8H91.7c-2,0-3-0.8-3-3.5
		s1-3.6,3-3.6h30.2V41H93.8c-2,0-3-0.8-3-3.5s1-3.5,3-3.5h28.1V22.2c0-2.1,0.6-13.6,3.3-13.6s3.8,11.5,3.8,13.6V34h27.6
		c2,0,3.1,0.9,3.1,3.5s-1.1,3.5-3.1,3.5H129v28.9h29.6c2,0,3.1,0.9,3.1,3.6C161.8,76,160.7,76.8,158.7,76.8z M222.4,92.3h-31
		c-9.8,0-16.9-7.8-16.9-16.7s7.1-16.7,17-16.7c9.3,0,16.6,7.8,16.6,16.7c0,3.7-1.2,7.2-3.4,10.1h17.6c9.2,0,16.7-7.3,16.7-16.5
		c0-9.3-7.5-16.6-16.7-16.6h-21.2V31c0-1.3-1-2.3-2.3-2.3h-20.4c-1.6,0-2.9-1.4-2.9-3.6c0-2.1,1.3-3.5,2.9-3.5H202
		c3.5,0,6.2,2.7,6.2,6.2v17.7h14.2c13.2,0,23.7,10.8,23.7,23.5S235.6,92.3,222.4,92.3z M191.3,65.3c-5.6,0-10.1,4.6-10.1,10.3
		c0,5.6,4.4,10.1,10.3,10.1c5.5,0,10.1-4.5,10.1-10.1C201.6,69.9,197,65.3,191.3,65.3z M259.5,92.3c-2.7,0-3.6-1-3.6-3.1V22.6
		c0-2.1,0.8-3.1,3.6-3.1c2.6,0,3.5,1.1,3.5,3.1v66.7C263,91.4,262.1,92.3,259.5,92.3z M303.9,29.2h-24.8c-2,0-2.9-0.8-2.9-3.3
		s0.9-3.4,2.9-3.4h24.8c2,0,3,0.9,3,3.4S305.9,29.2,303.9,29.2z M324.5,72.5h-7.9c0.1,0.7,0.1,1.3,0.1,2c0,10.1-8.2,18.3-18.3,18.3
		h-2.2c-10.1,0-18.4-8.2-18.4-18.3s8.3-18.3,18.4-18.3h2.2c4.1,0,8,1.5,11.1,3.9V47h-30.3c-2,0-2.9-0.8-2.9-3.3s0.9-3.4,2.9-3.4
		h45.5c2,0,3,0.9,3,3.4s-1,3.3-3,3.3h-8.1v18.4h7.9c2.1,0,3.1,0.9,3.1,3.6C327.6,71.6,326.5,72.5,324.5,72.5z M297.8,62.8h-1.7
		c-6.4,0-11.6,5.2-11.6,11.6S289.7,86,296.1,86h1.7c6.4,0,11.6-5.3,11.6-11.6S304.2,62.8,297.8,62.8z"/>
</g>
</svg>
