<?xml version="1.0" encoding="utf-8"?>
<!-- Generator: Adobe Illustrator 24.2.3, SVG Export Plug-In . SVG Version: 6.00 Build 0)  -->
<svg version="1.1" id="レイヤー_1" xmlns="http://www.w3.org/2000/svg" xmlns:xlink="http://www.w3.org/1999/xlink" x="0px"
	 y="0px" viewBox="0 0 486 142" style="enable-background:new 0 0 486 142;" xml:space="preserve">
<style type="text/css">
	.st0{display:none;stroke:#231815;stroke-miterlimit:10;}
	.st1{fill:#F7F8F8;stroke:#F7F8F8;stroke-miterlimit:10;}
	.st2{display:none;fill:url(#SVGID_1_);stroke:#231815;stroke-miterlimit:10;}
</style>
<rect x="-74.86" y="-22.62" class="st0" width="627" height="189"/>
<path class="st1" d="M101.15,127.85c-0.96,0-1.93-0.65-2.78-1.95L73.95,91.78c-10.06,21.88-28.91,36.33-51.61,36.33h-7.39
	c-2.68,0-3.96-1.3-3.96-5.6c0-4.17,1.28-5.6,3.96-5.6h7.39c27.3,0,50-25.92,50-62.51v-19.8c0-2.08-1.28-3.65-3-3.65H27.27
	c-2.68,0-3.96-1.3-3.96-5.6c0-4.3,1.28-5.73,3.96-5.73h46.47c4.5,0,8.03,4.3,8.03,9.77v24.74c0,9.25-1.29,18.1-3.64,26.18
	l27.41,38.29c0.75,1.04,1.18,2.08,1.18,3.13C106.72,124.34,103.29,127.85,101.15,127.85z"/>
<path class="st1" d="M219.08,104.02h-38.44v19.27c0,3.26-1.18,4.82-4.71,4.82s-4.6-1.56-4.6-4.82v-19.27h-39.19
	c-2.57,0-3.85-1.3-3.85-5.47s1.29-5.6,3.85-5.6h39.19V47.37h-36.51c-2.57,0-3.85-1.3-3.85-5.47s1.29-5.6,3.85-5.6h36.51V17.81
	c0-3.26,1.07-4.95,4.6-4.95s4.71,1.69,4.71,4.95V36.3h35.87c2.57,0,3.96,1.43,3.96,5.6s-1.39,5.47-3.96,5.47h-35.87v45.58h38.44
	c2.57,0,3.96,1.43,3.96,5.6S221.64,104.02,219.08,104.02z"/>
<path class="st1" d="M311.84,128.5h-40.26c-12.74,0-21.95-12.24-21.95-26.44c0-14.2,9.21-26.44,22.06-26.44
	c12.1,0,21.52,12.24,21.52,26.44c0,5.86-1.61,11.33-4.39,15.89h22.81c11.99,0,21.74-11.59,21.74-26.05
	c0-14.72-9.74-26.18-21.63-26.18h-27.52V31.61c0-2.08-1.29-3.65-3-3.65h-26.45c-2.04,0-3.75-2.21-3.75-5.73
	c0-3.39,1.71-5.6,3.75-5.6h30.62c4.5,0,8.03,4.3,8.03,9.77v28h18.42c17.13,0,30.73,17.06,30.73,37.12
	C342.57,111.57,328.97,128.5,311.84,128.5z M271.37,85.79c-7.28,0-13.17,7.29-13.17,16.28c0,8.86,5.78,15.89,13.38,15.89
	c7.17,0,13.17-7.16,13.17-15.89C284.75,93.08,278.75,85.79,271.37,85.79z"/>
<path class="st1" d="M369.91,128.5c-3.53,0-4.6-1.56-4.6-4.82V18.33c0-3.26,1.07-4.95,4.6-4.95c3.43,0,4.6,1.69,4.6,4.95v105.36
	C374.52,126.94,373.34,128.5,369.91,128.5z M427.62,28.75h-32.23c-2.57,0-3.75-1.3-3.75-5.21c0-3.91,1.18-5.34,3.75-5.34h32.23
	c2.57,0,3.85,1.43,3.85,5.34C431.48,27.44,430.19,28.75,427.62,28.75z M454.28,97.12H444c0.11,1.04,0.11,2.08,0.11,3.13
	c0,15.89-10.6,28.91-23.77,28.91h-2.89c-13.06,0-23.88-12.89-23.88-28.91c0-16.02,10.81-28.91,23.88-28.91h2.89
	c5.35,0,10.39,2.34,14.45,6.12V56.88h-39.4c-2.57,0-3.75-1.3-3.75-5.21c0-3.91,1.18-5.34,3.75-5.34h59.1c2.57,0,3.85,1.43,3.85,5.34
	c0,3.91-1.29,5.21-3.85,5.21H444v29.04h10.28c2.68,0,4.07,1.43,4.07,5.6C458.35,95.82,456.96,97.12,454.28,97.12z M419.7,81.88
	h-2.25c-8.35,0-15.1,8.21-15.1,18.36s6.75,18.36,15.1,18.36h2.25c8.24,0,15.1-8.33,15.1-18.36C434.8,90.22,427.94,81.88,419.7,81.88
	z M447.97,37.21c-6.85,0-12.42-6.77-12.42-15.11c0-8.2,5.67-14.98,12.42-14.98c6.85,0,12.42,6.77,12.42,14.98
	C460.39,30.44,454.82,37.21,447.97,37.21z M447.97,14.68c-3.43,0-6.21,3.39-6.21,7.42c0,4.3,2.78,7.68,6.21,7.68
	c3.43,0,6.21-3.39,6.21-7.68C454.18,18.07,451.39,14.68,447.97,14.68z"/>
<linearGradient id="SVGID_1_" gradientUnits="userSpaceOnUse" x1="-18" y1="72.5" x2="505" y2="72.5" gradientTransform="matrix(-1 0 0 -1 487 145)">
	<stop  offset="0" style="stop-color:#FFAB40"/>
	<stop  offset="0.4149" style="stop-color:#2979FF"/>
	<stop  offset="1" style="stop-color:#9C29B0"/>
</linearGradient>
<polygon class="st2" points="-18,-22 505,-22 505,167 -18,167 "/>
</svg>
