<?xml version="1.0" encoding="utf-8"?>
<!-- Generator: Adobe Illustrator 24.3.0, SVG Export Plug-In . SVG Version: 6.00 Build 0)  -->
<svg version="1.1" id="レイヤー_1" xmlns="http://www.w3.org/2000/svg" xmlns:xlink="http://www.w3.org/1999/xlink" x="0px"
	 y="0px" viewBox="0 0 400 110.3" style="enable-background:new 0 0 400 110.3;" xml:space="preserve">
<style type="text/css">
	.st0{fill:#1E1E1E;}
	.st1{font-family:'JosefinSans-Bold';}
	.st2{font-size:72.298px;}
	.st3{fill:url(#SVGID_1_);}
	.st4{fill:url(#SVGID_2_);}
</style>
<path class="st0" d="M179.5,68.6c-6.8,2.7-13.6,5.4-20.3,8.1s-13.5,5.4-20.3,8.1c1.5,3.3,3.8,6,7.1,8.1c3.2,2.1,6.9,3.1,11,3.1
	c2.7,0,5.2-0.5,7.6-1.4c2.4-1,4.4-2.3,6.2-4.1c0.6,0.7,1.2,1.4,1.7,2c0.5,0.7,1.1,1.3,1.7,2c-2.3,2.1-4.8,3.8-7.7,5s-6,1.8-9.4,1.8
	c-3.6,0-6.9-0.7-10-2c-3.1-1.4-5.8-3.2-8.1-5.4c-2.3-2.3-4.2-5-5.5-8.1c-1.4-3.1-2-6.4-2-10c0-3.5,0.7-6.8,2-10
	c1.4-3.1,3.2-5.9,5.5-8.1c2.3-2.3,5-4.1,8.1-5.4c3.1-1.4,6.4-2,10-2c2.6,0,5.1,0.5,7.5,1.4s4.5,2.2,6.5,3.8s3.7,3.5,5.2,5.8
	C177.6,63.5,178.7,65.9,179.5,68.6z M156.9,55.5c-2.6,0-5.1,0.5-7.5,1.4s-4.4,2.2-6.2,3.9c-1.7,1.7-3.2,3.6-4.3,5.8
	c-1.1,2.2-1.8,4.5-2,7.1c-0.1,1-0.1,2.1-0.1,3.1s0.2,2,0.3,2.9c5.9-2.4,11.7-4.7,17.6-7c5.9-2.3,11.8-4.7,17.7-7
	c-1.5-3-3.6-5.4-6.4-7.3C163.3,56.5,160.3,55.5,156.9,55.5z"/>
<path class="st0" d="M194.6,76.8c0-3.5,0.7-6.8,2-9.9s3.1-5.8,5.4-8.1c2.3-2.3,5-4.1,8.2-5.5c3.1-1.4,6.5-2,10.1-2
	c2.6,0,5.1,0.4,7.3,1.1c2.3,0.7,4.3,1.7,6.2,2.9s3.4,2.5,4.7,4s2.2,3,2.8,4.5c-0.1-1-0.2-1.9-0.3-2.9s-0.2-2-0.3-2.9V3.1h5.4v98.3
	h-4.8v-5.9V90c-0.5,1.5-1.4,3-2.7,4.5s-2.8,2.8-4.6,4s-3.8,2.1-6.2,2.8c-2.3,0.7-4.8,1-7.5,1c-3.6,0-6.9-0.7-10.1-2
	s-5.9-3.2-8.2-5.4c-2.3-2.3-4.1-5-5.4-8.1C195.3,83.7,194.6,80.4,194.6,76.8z M200.1,76.8c0,2.8,0.5,5.4,1.6,7.9
	c1,2.4,2.5,4.6,4.3,6.4s3.9,3.3,6.4,4.3c2.4,1,5.1,1.6,8,1.6s5.6-0.5,8.1-1.6c2.5-1,4.7-2.5,6.5-4.3s3.3-4,4.3-6.4s1.6-5.1,1.6-7.9
	s-0.5-5.4-1.6-7.9c-1-2.5-2.5-4.7-4.3-6.5s-4-3.3-6.5-4.3s-5.2-1.6-8.1-1.6s-5.5,0.5-8,1.6c-2.4,1-4.6,2.5-6.4,4.3
	c-1.8,1.8-3.2,4-4.3,6.5C200.7,71.3,200.1,74,200.1,76.8z"/>
<text transform="matrix(1 0 0 1 264.0275 101.3993)" class="st0 st1 st2">U</text>
<text transform="matrix(1 0 0 1 322.8741 101.3993)" class="st0 st1 st2">U</text>
<g>
	
		<linearGradient id="SVGID_1_" gradientUnits="userSpaceOnUse" x1="12.708" y1="53.222" x2="77.0395" y2="25.133" gradientTransform="matrix(1 0 0 -1 0 109.8898)">
		<stop  offset="0" style="stop-color:#6C63FE"/>
		<stop  offset="0.998" style="stop-color:#D81B60"/>
	</linearGradient>
	<path class="st3" d="M78.2,69.9c0-16.8-11.7-30.8-27.5-34.2V45C61.4,48.2,69,58.1,69,69.9c0,6.8-2.6,13-6.8,17.6l-5.9-7l-6.6,5.6
		l5.7,6.7c-3.6,2-7.8,3.1-12.3,3.1c-14.4,0-26-11.7-26-26.1c0-11.8,7.7-21.6,18.4-24.9v-9.3C19.7,39.1,8,53.1,8,69.9
		C8,89.4,23.6,105,43.1,105c6.7,0,12.9-1.8,18.2-5.1l7.7,9l6.6-5.6l-7.5-8.8C74.4,88.2,78.2,79.5,78.2,69.9z"/>
	
		<linearGradient id="SVGID_2_" gradientUnits="userSpaceOnUse" x1="38.8918" y1="63.0495" x2="47.7427" y2="59.9423" gradientTransform="matrix(1 0 0 -1 0 109.8898)">
		<stop  offset="0" style="stop-color:#6C63FE"/>
		<stop  offset="0.998" style="stop-color:#D81B60"/>
	</linearGradient>
	<rect x="38.7" y="26.3" class="st4" width="8.7" height="44"/>
</g>
</svg>
