<?xml version="1.0" encoding="utf-8"?>
<!-- Generator: Adobe Illustrator 25.0.1, SVG Export Plug-In . SVG Version: 6.00 Build 0)  -->
<svg version="1.1" id="レイヤー_1" xmlns="http://www.w3.org/2000/svg" xmlns:xlink="http://www.w3.org/1999/xlink" x="0px"
	 y="0px" viewBox="0 0 200 202.3" style="enable-background:new 0 0 200 202.3;" xml:space="preserve">
<style type="text/css">
	.st0{fill:#FFFFFF;}
</style>
<path class="st0" d="M100,0C44.8,0,0,44.7,0,100c0,55.2,44.7,100,100,100c19,0,37.6-5.4,53.7-15.6l36.1,17.9L174,167.1
	c37.1-40.8,34.2-104-6.6-141.1C148.9,9.2,124.9,0,100,0L100,0z M100,40.9c29.1,0,51.9,25.7,51.9,56c0,11.8-3.5,23.3-10,33l6,5.8
	c4.2,4,4.3,10.6,0.3,14.8c-4,4.2-10.6,4.3-14.8,0.3c0,0,0,0-0.1-0.1l-6.3-6.1c-8,5.3-17.4,8.2-27,8.2c-29.1,0-51.9-25.7-51.9-56
	S70.9,40.9,100,40.9L100,40.9z M100,61.9c-16.6,0-30.9,15.1-30.9,35.1S83.4,132,100,132c3.9,0,7.7-0.8,11.3-2.4l-3.9-3.8
	c-4.2-4-4.4-10.6-0.5-14.8c4-4.2,10.6-4.4,14.8-0.5c0.1,0.1,0.2,0.1,0.2,0.2l4.6,4.4c3-5.6,4.5-11.9,4.4-18.2
	C130.9,76.9,116.6,61.9,100,61.9L100,61.9z"/>
</svg>
