<?xml version="1.0" encoding="utf-8"?>
<!-- Generator: Adobe Illustrator 25.0.0, SVG Export Plug-In . SVG Version: 6.00 Build 0)  -->
<svg version="1.1" id="レイヤー_1" xmlns="http://www.w3.org/2000/svg" xmlns:xlink="http://www.w3.org/1999/xlink" x="0px"
	 y="0px" viewBox="0 0 70.2 82.6" style="enable-background:new 0 0 70.2 82.6;" xml:space="preserve">
<style type="text/css">
	.st0{fill:url(#SVGID_1_);}
	.st1{fill:url(#SVGID_2_);}
</style>
<g>
	
		<linearGradient id="SVGID_1_" gradientUnits="userSpaceOnUse" x1="4.7281" y1="1494.3765" x2="69.0596" y2="1522.4656" gradientTransform="matrix(1 0 0 1 0 -1464)">
		<stop  offset="0" style="stop-color:#4DB8EA"/>
		<stop  offset="1" style="stop-color:#1997CD"/>
	</linearGradient>
	<path class="st0" d="M70.2,43.6c0-16.8-11.7-30.8-27.5-34.2v9.3C53.4,21.9,61,31.8,61,43.6c0,6.8-2.6,13-6.8,17.6l-5.9-7l-6.6,5.6
		l5.7,6.7c-3.6,2-7.8,3.1-12.3,3.1c-14.4,0-26-11.7-26-26.1c0-11.8,7.7-21.6,18.4-24.9V9.3C11.7,12.8,0,26.8,0,43.6
		c0,19.5,15.6,35.1,35.1,35.1c6.7,0,12.9-1.8,18.2-5.1l7.7,9l6.6-5.6l-7.5-8.8C66.4,61.9,70.2,53.2,70.2,43.6z"/>
	
		<linearGradient id="SVGID_2_" gradientUnits="userSpaceOnUse" x1="30.9131" y1="1484.5477" x2="39.764" y2="1487.6549" gradientTransform="matrix(1 0 0 1 0 -1464)">
		<stop  offset="0" style="stop-color:#4DB8EA"/>
		<stop  offset="0.998" style="stop-color:#1997CD"/>
	</linearGradient>
	<rect x="30.7" class="st1" width="8.7" height="44"/>
</g>
</svg>
